<svg xmlns="http://www.w3.org/2000/svg" viewBox="0 0 64 64" role="img" aria-label="Network Master favicon">
  <defs>
    <linearGradient id="bg" x1="12" y1="10" x2="52" y2="54" gradientUnits="userSpaceOnUse">
      <stop offset="0" stop-color="#0f172a" />
      <stop offset="1" stop-color="#0369a1" />
    </linearGradient>
    <linearGradient id="line" x1="18" y1="18" x2="46" y2="46" gradientUnits="userSpaceOnUse">
      <stop offset="0" stop-color="#fde68a" />
      <stop offset="1" stop-color="#7dd3fc" />
    </linearGradient>
  </defs>
  <rect width="64" height="64" rx="16" fill="url(#bg)" />
  <path
    d="M18 18 32 12 46 18 48 34 36 48 20 46 16 30Z"
    fill="none"
    stroke="url(#line)"
    stroke-linecap="round"
    stroke-linejoin="round"
    stroke-width="4"
  />
  <path
    d="M18 18 36 48M46 18 20 46M32 12 16 30M48 34 20 46"
    fill="none"
    stroke="rgba(255,255,255,0.32)"
    stroke-linecap="round"
    stroke-width="3"
  />
  <circle cx="18" cy="18" r="4.5" fill="#f8fafc" />
  <circle cx="32" cy="12" r="4.5" fill="#fde68a" />
  <circle cx="46" cy="18" r="4.5" fill="#f8fafc" />
  <circle cx="48" cy="34" r="4.5" fill="#bae6fd" />
  <circle cx="36" cy="48" r="4.5" fill="#f8fafc" />
  <circle cx="20" cy="46" r="4.5" fill="#bae6fd" />
  <circle cx="16" cy="30" r="4.5" fill="#fde68a" />
</svg>
